<?xml version="1.0" encoding="UTF-8" standalone="no"?>
<!-- Created with Inkscape (http://www.inkscape.org/) -->

<svg
   xmlns:dc="http://purl.org/dc/elements/1.1/"
   xmlns:cc="http://creativecommons.org/ns#"
   xmlns:rdf="http://www.w3.org/1999/02/22-rdf-syntax-ns#"
   xmlns:svg="http://www.w3.org/2000/svg"
   xmlns="http://www.w3.org/2000/svg"
   xmlns:inkscape="http://www.inkscape.org/namespaces/inkscape"
   version="1.1"
   width="460.83374"
   height="460.94501"
   id="svg2"
   xml:space="preserve"><metadata
     id="metadata8"><rdf:RDF><cc:Work
         rdf:about=""><dc:format>image/svg+xml</dc:format><dc:type
           rdf:resource="http://purl.org/dc/dcmitype/StillImage" /></cc:Work></rdf:RDF></metadata><defs
     id="defs6"><clipPath
       id="clipPath16"><path
         d="m 5.446,184.762 c 0,-98.86 80.142,-179 179.002,-179 l 0,0 c 98.858,0 179,80.14 179,179 l 0,0 c 0,98.859 -80.142,179 -179,179 l 0,0 c -98.86,0 -179.002,-80.141 -179.002,-179"
         inkscape:connector-curvature="0"
         id="path18" /></clipPath><clipPath
       id="clipPath32"><path
         d="m 0,0 368.666,0 0,368.756 L 0,368.756 0,0 z"
         inkscape:connector-curvature="0"
         id="path34" /></clipPath></defs><g
     transform="matrix(1.25,0,0,-1.25,0,460.945)"
     id="g10"><g
       id="g12"><g
         clip-path="url(#clipPath16)"
         id="g14"><g
           transform="translate(184.6733,363.3867)"
           id="g20"><path
             d="m 0,0 c -98.858,0 -179,-80.141 -179,-179 0,-98.859 80.142,-179 179,-179 98.859,0 179,80.141 179,179 C 179,-80.141 98.859,0 0,0"
             inkscape:connector-curvature="0"
             id="path22"
             style="fill:#249b7b;fill-opacity:1;fill-rule:nonzero;stroke:none" /></g><g
           transform="translate(363.6987,170.54)"
           id="g24"><path
             d="m 0,0 c -39.95,26.307 -121.443,79.026 -121.443,79.026 l -24.652,0 -0.033,-39.519 -41.126,31.505 -81.26,7.798 0,-112.095 21.32,-14.988 0,-8.683 c 0,0 -9.798,8.429 -10.797,8.375 -2.343,-0.125 -10.41,0.308 -10.41,0.308 l 0,-16.241 129.057,-98.659 C -50.628,-156.911 -6.192,-88.734 0,0"
             inkscape:connector-curvature="0"
             id="path26"
             style="fill:#277660;fill-opacity:1;fill-rule:nonzero;stroke:none" /></g></g></g><g
       id="g28"><g
         clip-path="url(#clipPath32)"
         id="g30"><g
           transform="translate(104.0439,108.7529)"
           id="g36"><path
             d="M 0,0 C 0.265,0 0.521,0.051 0.771,0.151 1.02,0.253 1.238,0.396 1.425,0.584 1.612,0.771 1.756,0.988 1.857,1.237 1.958,1.486 2.009,1.744 2.009,2.01 2.009,2.273 1.958,2.53 1.857,2.779 1.756,3.028 1.616,3.247 1.437,3.435 1.257,3.621 1.043,3.77 0.794,3.878 0.545,3.986 0.28,4.042 0,4.042 l -6.097,0 L -6.097,0 0,0 z m 0,10.793 -6.097,0 0,-4.064 6.097,0 c 0.265,0 0.521,0.054 0.771,0.163 0.249,0.109 0.467,0.255 0.654,0.444 0.187,0.185 0.331,0.403 0.432,0.653 0.101,0.249 0.152,0.515 0.152,0.795 0,0.265 -0.051,0.522 -0.152,0.771 C 1.756,9.804 1.612,10.021 1.425,10.209 1.238,10.396 1.02,10.54 0.771,10.642 0.521,10.742 0.265,10.793 0,10.793 M 3.294,5.396 C 4.244,4.478 4.719,3.349 4.719,2.01 4.719,1.37 4.594,0.763 4.345,0.187 4.096,-0.391 3.757,-0.893 3.329,-1.319 2.9,-1.748 2.398,-2.087 1.822,-2.336 1.246,-2.586 0.638,-2.71 0,-2.71 l -8.784,0 0,16.213 8.784,0 c 0.623,0 1.227,-0.125 1.811,-0.373 C 2.395,12.88 2.9,12.541 3.329,12.112 3.757,11.685 4.096,11.183 4.345,10.605 4.594,10.029 4.719,9.423 4.719,8.784 4.719,7.46 4.244,6.331 3.294,5.396"
             inkscape:connector-curvature="0"
             id="path38"
             style="fill:#ffffff;fill-opacity:1;fill-rule:nonzero;stroke:none" /></g><g
           transform="translate(124.5781,119.5459)"
           id="g40"><path
             d="m 0,0 -5.419,0 0,-5.373 L 0,-5.396 c 0.732,0 1.363,0.264 1.893,0.793 0.529,0.531 0.794,1.168 0.794,1.915 0,0.734 -0.265,1.365 -0.794,1.894 C 1.363,-0.266 0.732,0 0,0 m 2.29,-13.503 -3.131,5.397 -4.578,0 0,-5.397 -2.687,0 0,16.213 8.106,0 c 1.479,0 2.749,-0.529 3.808,-1.588 1.059,-1.06 1.589,-2.329 1.589,-3.81 0,-1.121 -0.32,-2.14 -0.958,-3.059 -0.623,-0.903 -1.418,-1.55 -2.383,-1.94 l 3.341,-5.816 -3.107,0 z"
             inkscape:connector-curvature="0"
             id="path42"
             style="fill:#ffffff;fill-opacity:1;fill-rule:nonzero;stroke:none" /></g><g
           transform="translate(143.4072,111.4395)"
           id="g44"><path
             d="M 0,0 4.766,0 2.383,4.766 0,0 z m 6.122,-2.688 -7.454,0 -1.378,-2.708 -3.014,0 8.107,16.211 8.107,-16.211 -3.014,0 -1.354,2.708 z"
             inkscape:connector-curvature="0"
             id="path46"
             style="fill:#ffffff;fill-opacity:1;fill-rule:nonzero;stroke:none" /></g><path
           d="m 161.605,122.256 2.688,0 0,-16.213 -2.688,0 0,16.213 z"
           inkscape:connector-curvature="0"
           id="path48"
           style="fill:#ffffff;fill-opacity:1;fill-rule:nonzero;stroke:none" /><g
           transform="translate(172.0015,122.2793)"
           id="g50"><path
             d="m 0,0 10.793,-9.719 0,9.719 2.71,0 0,-16.213 0,0.024 0,-0.047 -10.815,9.717 0,-9.694 -2.688,0 L 0,0 z"
             inkscape:connector-curvature="0"
             id="path52"
             style="fill:#ffffff;fill-opacity:1;fill-rule:nonzero;stroke:none" /></g><g
           transform="translate(193.2134,122.2559)"
           id="g54"><path
             d="m 0,0 2.687,0 0,-13.503 8.106,0 0,-2.71 L 0,-16.213 0,0 z"
             inkscape:connector-curvature="0"
             id="path56"
             style="fill:#ffffff;fill-opacity:1;fill-rule:nonzero;stroke:none" /></g><g
           transform="translate(217.9058,119.5459)"
           id="g58"><path
             d="m 0,0 c -1.479,0 -2.757,-0.529 -3.831,-1.588 -1.044,-1.059 -1.565,-2.329 -1.565,-3.808 0,-1.48 0.521,-2.757 1.565,-3.833 1.074,-1.042 2.352,-1.564 3.831,-1.564 1.479,0 2.749,0.522 3.809,1.564 1.058,1.076 1.587,2.353 1.587,3.833 0,1.479 -0.529,2.749 -1.587,3.808 C 2.749,-0.529 1.479,0 0,0 M 0,2.71 C 2.243,2.71 4.15,1.916 5.724,0.327 7.328,-1.263 8.13,-3.169 8.13,-5.396 8.13,-7.654 7.328,-9.563 5.724,-11.12 4.15,-12.709 2.243,-13.503 0,-13.503 c -2.242,0 -4.15,0.794 -5.724,2.383 -1.588,1.573 -2.382,3.48 -2.382,5.724 0,2.227 0.794,4.133 2.382,5.723 C -4.166,1.916 -2.258,2.71 0,2.71"
             inkscape:connector-curvature="0"
             id="path60"
             style="fill:#ffffff;fill-opacity:1;fill-rule:nonzero;stroke:none" /></g><g
           transform="translate(241.8511,119.5459)"
           id="g62"><path
             d="m 0,0 c -1.479,0 -2.757,-0.529 -3.831,-1.588 -1.044,-1.059 -1.565,-2.329 -1.565,-3.808 0,-1.48 0.521,-2.757 1.565,-3.833 1.074,-1.042 2.352,-1.564 3.831,-1.564 1.479,0 2.749,0.522 3.809,1.564 1.058,1.076 1.587,2.353 1.587,3.833 0,1.479 -0.529,2.749 -1.587,3.808 C 2.749,-0.529 1.479,0 0,0 M 0,2.71 C 2.243,2.71 4.15,1.916 5.724,0.327 7.328,-1.263 8.13,-3.169 8.13,-5.396 8.13,-7.654 7.328,-9.563 5.724,-11.12 4.15,-12.709 2.243,-13.503 0,-13.503 c -2.242,0 -4.15,0.794 -5.724,2.383 -1.588,1.573 -2.382,3.48 -2.382,5.724 0,2.227 0.794,4.133 2.382,5.723 C -4.166,1.916 -2.258,2.71 0,2.71"
             inkscape:connector-curvature="0"
             id="path64"
             style="fill:#ffffff;fill-opacity:1;fill-rule:nonzero;stroke:none" /></g><g
           transform="translate(263.0874,114.1494)"
           id="g66"><path
             d="m 0,0 8.105,-8.106 -3.806,0 -7.009,6.96 0,-6.96 -2.686,0 0,16.211 2.686,0 0,-6.983 7.009,6.983 3.806,0 L 0,0 z"
             inkscape:connector-curvature="0"
             id="path68"
             style="fill:#ffffff;fill-opacity:1;fill-rule:nonzero;stroke:none" /></g><g
           transform="translate(118.4844,156.4766)"
           id="g70"><path
             d="m 0,0 28.408,0 c 11.425,0 18.063,5.096 18.063,16.521 0,9.726 -8.337,13.584 -16.828,13.584 L 0,30.105 0,0 z m 0,48.942 27.327,0 c 9.263,0 16.519,3.551 16.519,12.505 0,9.109 -6.484,12.043 -17.137,12.043 L 0,73.49 0,48.942 z m -23.312,43.846 55.27,0 c 27.328,0 34.391,-11.842 34.275,-28.562 C 66.121,48.17 57.279,43.384 52.647,41.068 66.387,35.973 69.784,25.166 69.784,14.204 c 0,-9.572 -3.551,-33.502 -44.927,-33.502 l -48.169,0 0,112.086 z"
             inkscape:connector-curvature="0"
             id="path72"
             style="fill:#ffffff;fill-opacity:1;fill-rule:nonzero;stroke:none" /></g><g
           transform="translate(271.1802,137.2402)"
           id="g74"><path
             d="m 0,0 0,24.704 -28.959,0 0,87.627 -24.65,0 L -53.609,0 0,0 z"
             inkscape:connector-curvature="0"
             id="path76"
             style="fill:#ffffff;fill-opacity:1;fill-rule:nonzero;stroke:none" /></g></g></g></g></svg>